<svg xmlns="http://www.w3.org/2000/svg" viewBox="0 0 208 275"><defs><style>.cls-1{fill:#fff;}</style></defs><title>logo</title><g id="Layer_2" data-name="Layer 2"><g id="Layer_1-2" data-name="Layer 1"><path class="cls-1" d="M199.57,139.5c.07-1.49.11-3,.11-4.5,0-50.81-42.84-92-95.68-92S8.32,84.19,8.32,135c0,1.51,0,3,.11,4.5A96.27,96.27,0,0,1,0,100C0,44.77,46.56,0,104,0S208,44.77,208,100A96.27,96.27,0,0,1,199.57,139.5Z"/><path d="M159.44,184.57a76.46,76.46,0,0,1-113.88,0A242.89,242.89,0,0,0,102.5,191,242.89,242.89,0,0,0,159.44,184.57Z"/><path d="M141.5,223.81a51,51,0,0,1-75.94,0,162.19,162.19,0,0,0,38,4.28A162.19,162.19,0,0,0,141.5,223.81Z"/><circle cx="104" cy="265" r="10"/></g></g></svg>